<?xml version="1.0" encoding="UTF-8" standalone="no"?>
<svg
   viewBox="0 0 1440 320"
   version="1.1"
   id="svg159"
   sodipodi:docname="wave1.svg"
   width="1440"
   height="320"
   xml:space="preserve"
   inkscape:export-filename="waves.svg"
   inkscape:export-xdpi="96"
   inkscape:export-ydpi="96"
   inkscape:version="1.2.1 (9c6d41e4, 2022-07-14)"
   xmlns:inkscape="http://www.inkscape.org/namespaces/inkscape"
   xmlns:sodipodi="http://sodipodi.sourceforge.net/DTD/sodipodi-0.dtd"
   xmlns="http://www.w3.org/2000/svg"
   xmlns:svg="http://www.w3.org/2000/svg"><defs
     id="defs163" /><sodipodi:namedview
     id="namedview161"
     pagecolor="#ffffff"
     bordercolor="#000000"
     borderopacity="0.25"
     inkscape:showpageshadow="2"
     inkscape:pageopacity="0.0"
     inkscape:pagecheckerboard="0"
     inkscape:deskcolor="#d1d1d1"
     showgrid="false"
     inkscape:zoom="0.83643576"
     inkscape:cx="544.5726"
     inkscape:cy="364.64247"
     inkscape:window-width="1680"
     inkscape:window-height="948"
     inkscape:window-x="0"
     inkscape:window-y="25"
     inkscape:window-maximized="0"
     inkscape:current-layer="layer1" /><g
     inkscape:groupmode="layer"
     id="layer1"
     inkscape:label="Background"
     style="display:inline;fill:#ff0000"><rect
       style="fill:none"
       id="rect570"
       width="1439.8579"
       height="320.45425"
       x="0.19497721"
       y="2.5862352e-07" /></g><path
     fill="#273036"
     fill-opacity="1"
     d="M 0.11164027,282.35951 26.81164,263.81872 c 26.6,-18.54072 80.3,-55.62217 133.3,-67.96336 53.3,-12.57296 107,0.17378 160,12.34119 53.30002,12.16731 107.00002,24.91407 160.00002,27.8111 53.3,2.89699 107,-2.89703 160,-18.54077 53.3,-15.64375 107,-39.97846 160,-46.35184 53.3,-6.37338 107,6.37338 160,24.74032 53.29994,18.71454 106.99994,43.04928 159.99994,40.15229 53.3,-2.89703 107,-34.18452 160,-49.42268 53.3,-15.46993 107,-15.46993 133,-15.46993 h 27 v 148.32593 h -26.7 c -26.6,0 -80.3,0 -133.3,0 -53.3,0 -107,0 -160,0 -53.3,0 -107,0 -159.99994,0 -53.3,0 -107,0 -160,0 -53.3,0 -107,0 -160,0 -53.3,0 -107,0 -160,0 -53.3,0 -107,0 -160.00002,0 -53.3,0 -107,0 -160,0 -53.3,0 -107,0 -133,0 H 0.11164027 Z"
     id="path1013"
     inkscape:label="Waves 4"
     style="opacity:0.5;fill:#ffffff;stroke-width:0.761182" /><path
     fill="#273036"
     fill-opacity="1"
     d="m 1.3071893,170.97667 26.6999997,15.46994 c 26.6,15.23814 80.300001,46.52569 133.300001,46.35184 53.3,0.17384 107,-31.1137 160,-27.81113 53.30002,3.07084 107.00002,40.15231 160.00002,46.35187 53.3,5.96782 107,-18.36689 160,-24.74029 53.3,-6.37337 107,6.3734 160,21.61157 53.3,15.46993 107,34.01067 160,43.28101 53.29989,9.27039 106.99989,9.27039 159.99989,-12.34118 53.3,-21.84329 107,-64.71878 160,-77.29168 53.3,-12.3412 107,6.19954 133,15.46993 l 27,9.27035 v 92.70371 h -26.7 c -26.6,0 -80.3,0 -133.3,0 -53.3,0 -107,0 -160,0 -53.3,0 -107,0 -159.99989,0 -53.3,0 -107,0 -160,0 -53.3,0 -107,0 -160,0 -53.3,0 -107,0 -160,0 -53.3,0 -107,0 -160.00002,0 -53.3,0 -107,0 -160,0 -53.3,0 -107.000001,0 -133.000001,0 H 1.3071893 Z"
     id="path909"
     inkscape:label="Waves 3"
     style="display:inline;opacity:0.5;fill:#ffffff;stroke-width:0.761182" /><path
     fill="#273036"
     fill-opacity="1"
     d="m 0.84809924,300.69331 34.29999976,3.0708 c 34.3,3.30256 102.700001,9.09654 171.700001,-9.27041 68.3,-18.71451 137,-61.59001 204.99999,-89.57493 69,-27.63729 138,-40.38405 206,-30.93986 68.7,9.09655 137,40.38406 206,46.35187 68.4,6.19956 137,-12.34118 205.99991,-3.07083 68.1,9.27039 137,46.35186 205,55.62225 68.9,9.27034 137,-9.27039 172,-18.54075 l 34,-9.27037 v 74.16295 h -34.3 c -34.3,0 -102.7,0 -171.7,0 -68.3,0 -137,0 -205,0 -68.99991,0 -137.99991,0 -205.99991,0 -68.7,0 -137,0 -206,0 -68.4,0 -137,0 -206,0 -68.09999,0 -136.99999,0 -204.99999,0 -68.9,0 -137.000001,0 -172.000001,0 H 0.84809924 Z"
     id="path802"
     style="display:inline;opacity:0.5;fill:#ffffff;stroke-width:0.761182"
     inkscape:label="Waves 2" /><path
     fill="#273036"
     fill-opacity="1"
     d="M 0.39109814,174.86664 34.691098,196.47819 c 34.3,21.84331 102.700002,64.71879 171.700002,61.8218 68.3,-2.89699 137,-52.72526 205,-58.69303 69,-6.19958 138,30.8819 206,37.08146 68.7,5.96782 137,-18.36692 206,-21.6695 68.4,-3.07079 137,15.46994 205.9999,30.93989 68.1,15.23817 137,27.98492 205,27.81108 68.9,0.17383 137,-12.57291 172,-18.54074 l 34,-6.19955 v 74.16298 h -34.3 c -34.3,0 -102.7,0 -171.7,0 -68.3,0 -137,0 -205,0 -68.9999,0 -137.9999,0 -205.9999,0 -68.7,0 -137,0 -206,0 -68.4,0 -137,0 -206,0 -68.1,0 -137,0 -205,0 -68.9,0 -137.000002,0 -172.000002,0 H 0.39109814 Z"
     id="path157"
     style="display:inline;fill:#ffffff;stroke-width:0.761182"
     inkscape:label="Waves 1" /></svg>
